<?xml version="1.0" standalone="no"?>
<!DOCTYPE svg PUBLIC "-//W3C//DTD SVG 20010904//EN"
 "http://www.w3.org/TR/2001/REC-SVG-20010904/DTD/svg10.dtd">
<svg version="1.0" xmlns="http://www.w3.org/2000/svg"
 width="500.000000pt" height="500.000000pt" viewBox="0 0 500.000000 500.000000"
 preserveAspectRatio="xMidYMid meet">
<metadata>
Created by potrace 1.16, written by Peter Selinger 2001-2019
</metadata>
<g transform="translate(0.000000,500.000000) scale(0.100000,-0.100000)"
fill="#000000" stroke="none">
<path d="M1875 4203 c-127 -29 -248 -115 -320 -227 -31 -49 -65 -132 -65 -160
0 -8 -20 -19 -47 -26 -155 -39 -291 -168 -346 -330 l-22 -65 -3 -1040 c-2
-663 1 -1070 7 -1124 25 -204 154 -357 361 -430 39 -13 152 -16 875 -19 548
-2 862 0 925 7 203 23 361 149 425 339 l22 65 60 22 c164 59 276 173 326 330
l22 70 0 1085 0 1085 -22 71 c-53 167 -186 296 -349 338 -54 14 -170 16 -945
15 -486 -1 -893 -3 -904 -6z m-31 -615 c8 -40 73 -103 116 -112 42 -8 1193 -8
1244 1 38 6 108 61 118 93 4 12 13 10 46 -13 51 -33 107 -116 121 -177 7 -28
11 -291 11 -700 l0 -655 -85 85 -85 85 0 64 c0 114 -57 171 -171 171 l-65 0
-63 64 -64 64 134 4 c123 3 137 5 166 27 50 37 66 78 61 149 -4 52 -9 67 -34
93 -56 59 -54 59 -403 59 l-321 0 -25 49 c-13 27 -29 52 -35 56 -34 21 17 25
353 25 344 0 364 1 395 20 55 34 74 75 70 152 -3 59 -7 71 -33 99 -59 62 -26
59 -713 59 l-629 0 -34 -23 c-53 -35 -79 -82 -79 -139 0 -100 57 -161 162
-173 l56 -7 -31 -59 c-23 -43 -38 -59 -53 -59 -29 0 -84 -39 -111 -79 -30 -45
-31 -119 -2 -171 32 -56 82 -80 167 -80 54 0 82 -6 126 -26 44 -20 73 -26 126
-26 53 0 82 6 126 26 54 25 64 26 232 26 l176 0 -64 -65 -64 -65 -371 0 c-352
0 -371 -1 -400 -20 -16 -11 -41 -20 -55 -20 -18 0 -91 -66 -307 -282 l-283
-283 2 785 3 785 27 51 c30 58 94 119 147 142 55 23 103 29 252 31 l137 1 6
-32z m125 -1522 l84 -84 -57 -7 c-101 -13 -156 -73 -156 -171 0 -59 26 -105
79 -141 33 -22 42 -23 255 -23 l222 0 58 -59 59 -60 -279 -3 c-260 -3 -281 -4
-314 -24 -54 -31 -80 -77 -80 -141 0 -65 18 -103 67 -140 l36 -28 642 0 642 0
36 28 c49 37 67 75 67 140 0 64 -26 110 -80 141 -32 19 -56 21 -250 26 l-215
5 -54 58 -54 57 270 0 c264 0 271 0 304 23 55 37 79 81 79 146 0 66 -23 111
-72 141 -31 19 -51 20 -390 20 -197 0 -358 4 -358 8 0 4 26 33 58 65 l58 57
262 0 263 0 175 -172 175 -172 -3 -276 -3 -275 -28 -53 c-38 -72 -97 -127
-164 -152 -54 -20 -67 -20 -936 -18 l-882 3 -54 30 c-31 17 -71 51 -93 78 -56
72 -68 124 -68 306 l0 156 297 297 c164 164 303 298 308 298 6 0 48 -38 94
-84z"/>
</g>
</svg>
